<?xml version="1.0" encoding="iso-8859-1"?>
<!-- Generator: Adobe Illustrator 19.0.0, SVG Export Plug-In . SVG Version: 6.00 Build 0)  -->
<svg version="1.1" id="Layer_1" xmlns="http://www.w3.org/2000/svg" xmlns:xlink="http://www.w3.org/1999/xlink" x="0px" y="0px"
	 viewBox="0 0 512 512" style="enable-background:new 0 0 512 512;" xml:space="preserve">
<path style="fill:#4DA081;" d="M470.267,110.81l-25.731-4.869l-7.473,397.889h32.681c15.97,0,29.031-13.061,29.031-29.031V145.31
	C498.775,129.351,485.942,113.817,470.267,110.81z"/>
<g>
	<path style="fill:#5DC09A;" d="M466.094,138.229v336.569c0,15.97-13.061,29.031-29.031,29.031h-16.831l-21.787-201.238
		l21.787-201.249l24.304,4.597C456.889,111.496,466.094,124.71,466.094,138.229z"/>
	<path style="fill:#5DC09A;" d="M91.768,101.343l21.787,201.243L91.768,503.83H42.256c-15.97,0-29.031-13.061-29.031-29.031V145.31
		c0-15.959,12.833-31.493,28.509-34.5L91.768,101.343z"/>
</g>
<polygon style="fill:#FFF;" points="409.339,101.343 387.551,503.83 91.768,503.83 91.768,134.027 124.449,101.343 "/>
<polygon style="fill:#FFE29E;" points="372.545,59.223 139.455,59.223 91.768,101.343 91.769,134.027 186.59,194.472 
	228.817,128.231 283.183,128.231 325.41,194.472 387.551,154.859 387.551,503.83 420.232,503.83 420.232,101.343 "/>
<polygon style="fill:#FFD764;" points="361.341,63.564 283.18,117.335 228.82,117.335 150.659,63.564 150.659,29.957 
	361.341,29.957 "/>
<polygon style="fill:#CB2E3E;" points="304.967,95.548 305.512,130.571 279.323,193.906 256,215.694 268.942,95.548 "/>
<g>
	<polygon style="fill:#FF3B3B;" points="268.942,95.548 207.033,95.548 206.489,130.571 232.677,193.906 256,215.694 
		265.477,193.906 272.831,130.571 	"/>
	<polygon style="fill:#FF3B3B;" points="279.323,193.906 265.477,193.906 256,471.28 311.067,424.971 	"/>
</g>
<polygon style="fill:#FF6761;" points="265.477,193.906 278.386,424.971 256,471.28 200.933,424.971 232.677,193.906 "/>
<path style="fill:#FFF1CF;" d="M372.545,26.542C366.104,16.437,351.029,8.17,339.046,8.17H172.954
	c-11.983,0-27.058,8.267-33.499,18.372l-47.686,74.804l94.821,60.445l42.227-66.242L161.56,52.668l188.882-0.002l-67.26,42.884
	l42.227,66.242l94.821-60.445L372.545,26.542z"/>
<path d="M471.782,102.779l-46.561-8.805l-45.786-71.825C371.517,9.73,353.777,0,339.046,0H172.954
	c-14.729,0-32.471,9.73-40.388,22.15L86.78,93.975l-46.583,8.81c-19.379,3.72-35.142,22.799-35.142,42.53v329.483
	C5.055,495.311,21.744,512,42.257,512h427.485c20.514,0,37.203-16.689,37.203-37.203V145.314
	C506.945,125.584,491.182,106.505,471.782,102.779z M146.344,30.934c4.956-7.774,17.391-14.593,26.61-14.593h166.094
	c9.219,0,21.654,6.819,26.61,14.593l43.293,67.914l-81.043,51.662l-33.444-52.464l60.372-38.492
	c3.804-2.426,4.923-7.476,2.497-11.281c-2.427-3.805-7.476-4.922-11.281-2.497l-65.252,41.603h-49.596l-65.25-41.601
	c-3.806-2.425-8.855-1.307-11.281,2.497c-2.426,3.805-1.307,8.855,2.497,11.281l60.369,38.489l-33.445,52.464L103.05,98.849
	L146.344,30.934z M239.801,202.075h32.397l30.167,219.539L256,460.609l-46.365-38.995L239.801,202.075z M273.825,185.735h-35.649
	l-22.256-54.752l17.38-27.262h45.402l17.38,27.262L273.825,185.735z M490.605,474.797c0,11.504-9.359,20.862-20.862,20.862H42.257
	c-11.505,0-20.862-9.359-20.862-20.862V145.314c0-12.078,10.021-24.206,21.859-26.479l40.345-7.629v359.943
	c0,4.512,3.657,8.17,8.17,8.17s8.17-3.658,8.17-8.17V116.244l82.26,52.438c3.803,2.424,8.855,1.308,11.28-2.497l11.668-18.305
	l19.137,47.079l-31.452,228.897c-0.381,2.779,0.69,5.56,2.837,7.365l55.073,46.319c1.52,1.278,3.389,1.917,5.258,1.917
	s3.74-0.639,5.258-1.917l55.073-46.319c2.147-1.805,3.217-4.586,2.837-7.365l-31.452-228.897l19.137-47.079l11.668,18.305
	c1.558,2.443,4.198,3.779,6.897,3.779c1.503,0,3.023-0.414,4.384-1.282l82.26-52.438v354.905c0,4.512,3.657,8.17,8.17,8.17
	c4.513,0,8.17-3.658,8.17-8.17V111.206l40.323,7.624c11.861,2.278,21.882,14.406,21.882,26.483v329.483H490.605z"/>
<g>
</g>
<g>
</g>
<g>
</g>
<g>
</g>
<g>
</g>
<g>
</g>
<g>
</g>
<g>
</g>
<g>
</g>
<g>
</g>
<g>
</g>
<g>
</g>
<g>
</g>
<g>
</g>
<g>
</g>
</svg>
